<svg width="15" height="15" viewBox="0 0 15 15" fill="none" xmlns="http://www.w3.org/2000/svg">
<path d="M7.5 1.25C6.2878 1.2523 5.10243 1.60707 4.08827 2.27109C3.07411 2.9351 2.27494 3.87971 1.78809 4.98986C1.30124 6.1 1.14774 7.32776 1.34627 8.5236C1.5448 9.71943 2.0868 10.8317 2.90625 11.725L2.9625 11.7875C3.54653 12.4041 4.2501 12.8951 5.03024 13.2307C5.81038 13.5663 6.65074 13.7394 7.5 13.7394C8.34926 13.7394 9.18962 13.5663 9.96976 13.2307C10.7499 12.8951 11.4535 12.4041 12.0375 11.7875L12.0938 11.725C12.9132 10.8317 13.4552 9.71943 13.6537 8.5236C13.8523 7.32776 13.6988 6.1 13.2119 4.98986C12.7251 3.87971 11.9259 2.9351 10.9117 2.27109C9.89757 1.60707 8.7122 1.2523 7.5 1.25ZM3.50625 10.4938C2.85331 9.63227 2.49992 8.58096 2.49992 7.5C2.49992 6.41904 2.85331 5.36773 3.50625 4.50625C3.96961 4.85578 4.34552 5.3081 4.60436 5.8276C4.86321 6.3471 4.99794 6.91959 4.99794 7.5C4.99794 8.08041 4.86321 8.6529 4.60436 9.1724C4.34552 9.6919 3.96961 10.1442 3.50625 10.4938ZM7.5 12.5C6.36206 12.5019 5.25831 12.1112 4.375 11.3937C4.95672 10.9251 5.42605 10.3321 5.7485 9.65831C6.07095 8.9845 6.23833 8.24699 6.23833 7.5C6.23833 6.75301 6.07095 6.0155 5.7485 5.34169C5.42605 4.66787 4.95672 4.07487 4.375 3.60625C5.25938 2.89082 6.36247 2.50051 7.5 2.50051C8.63753 2.50051 9.74062 2.89082 10.625 3.60625C10.0433 4.07487 9.57395 4.66787 9.2515 5.34169C8.92905 6.0155 8.76167 6.75301 8.76167 7.5C8.76167 8.24699 8.92905 8.9845 9.2515 9.65831C9.57395 10.3321 10.0433 10.9251 10.625 11.3937C9.74169 12.1112 8.63794 12.5019 7.5 12.5ZM11.4937 10.4938C11.0304 10.1442 10.6545 9.6919 10.3956 9.1724C10.1368 8.6529 10.0021 8.08041 10.0021 7.5C10.0021 6.91959 10.1368 6.3471 10.3956 5.8276C10.6545 5.3081 11.0304 4.85578 11.4937 4.50625C12.1467 5.36773 12.5001 6.41904 12.5001 7.5C12.5001 8.58096 12.1467 9.63227 11.4937 10.4938Z" fill="currentColor"/>
</svg>
