<svg width="20" height="18" viewBox="0 0 20 18" fill="none" xmlns="http://www.w3.org/2000/svg">
<path d="M10.0707 16.9001L10.0686 16.9001C8.44497 16.9069 6.84358 16.5226 5.39992 15.7795L5.23246 15.6933L5.04975 15.739L1.3273 16.6704L2.5359 13.8494L2.65067 13.5815L2.47414 13.3496C1.52094 12.0975 0.970703 10.6028 0.970703 9.0001C0.970703 4.69768 4.98043 1.1001 10.0707 1.1001C15.161 1.1001 19.1707 4.69768 19.1707 9.0001C19.1707 13.3025 15.161 16.9001 10.0707 16.9001ZM6.9707 7.8001V7.3001H6.4707H4.0707H3.5707V7.8001V10.2001V10.7001H4.0707H6.4707H6.9707V10.2001V7.8001ZM16.5707 7.8001V7.3001H16.0707H13.6707H13.1707V7.8001V10.2001V10.7001H13.6707H16.0707H16.5707V10.2001V7.8001ZM8.8707 7.3001H8.3707V7.8001V10.2001V10.7001H8.8707H11.2707H11.7707V10.2001V7.8001V7.3001H11.2707H8.8707Z" fill="currentColor" stroke="currentColor"/>
</svg>
