<svg width="22" height="21" viewBox="0 0 22 21" fill="none" xmlns="http://www.w3.org/2000/svg">
<path d="M8 10C7.80222 10 7.60888 10.0586 7.44443 10.1685C7.27998 10.2784 7.15181 10.4346 7.07612 10.6173C7.00043 10.8 6.98063 11.0011 7.01921 11.1951C7.0578 11.3891 7.15304 11.5673 7.29289 11.7071C7.43275 11.847 7.61093 11.9422 7.80491 11.9808C7.99889 12.0194 8.19996 11.9996 8.38268 11.9239C8.56541 11.8482 8.72159 11.72 8.83147 11.5556C8.94135 11.3911 9 11.1978 9 11C9 10.7348 8.89464 10.4804 8.70711 10.2929C8.51957 10.1054 8.26522 10 8 10ZM12 10C11.8022 10 11.6089 10.0586 11.4444 10.1685C11.28 10.2784 11.1518 10.4346 11.0761 10.6173C11.0004 10.8 10.9806 11.0011 11.0192 11.1951C11.0578 11.3891 11.153 11.5673 11.2929 11.7071C11.4327 11.847 11.6109 11.9422 11.8049 11.9808C11.9989 12.0194 12.2 11.9996 12.3827 11.9239C12.5654 11.8482 12.7216 11.72 12.8315 11.5556C12.9414 11.3911 13 11.1978 13 11C13 10.7348 12.8946 10.4804 12.7071 10.2929C12.5196 10.1054 12.2652 10 12 10ZM16 10C15.8022 10 15.6089 10.0586 15.4444 10.1685C15.28 10.2784 15.1518 10.4346 15.0761 10.6173C15.0004 10.8 14.9806 11.0011 15.0192 11.1951C15.0578 11.3891 15.153 11.5673 15.2929 11.7071C15.4327 11.847 15.6109 11.9422 15.8049 11.9808C15.9989 12.0194 16.2 11.9996 16.3827 11.9239C16.5654 11.8482 16.7216 11.72 16.8315 11.5556C16.9414 11.3911 17 11.1978 17 11C17 10.7348 16.8946 10.4804 16.7071 10.2929C16.5196 10.1054 16.2652 10 16 10ZM12 1C10.6868 1 9.38642 1.25866 8.17317 1.7612C6.95991 2.26375 5.85752 3.00035 4.92893 3.92893C3.05357 5.8043 2 8.34784 2 11C1.99126 13.3091 2.79079 15.5485 4.26 17.33L2.26 19.33C2.12124 19.4706 2.02725 19.6492 1.98987 19.8432C1.9525 20.0372 1.97342 20.2379 2.05 20.42C2.13306 20.5999 2.2677 20.7511 2.43685 20.8544C2.60599 20.9577 2.802 21.0083 3 21H12C14.6522 21 17.1957 19.9464 19.0711 18.0711C20.9464 16.1957 22 13.6522 22 11C22 8.34784 20.9464 5.8043 19.0711 3.92893C17.1957 2.05357 14.6522 1 12 1ZM12 19H5.41L6.34 18.07C6.43449 17.9774 6.50966 17.8669 6.56115 17.7451C6.61265 17.6232 6.63945 17.4923 6.64 17.36C6.63624 17.0962 6.52841 16.8446 6.34 16.66C5.03059 15.352 4.21517 13.6305 4.03269 11.7888C3.85021 9.94705 4.31194 8.09901 5.33923 6.55952C6.36651 5.02004 7.89579 3.88436 9.66652 3.34597C11.4372 2.80759 13.3399 2.8998 15.0502 3.60691C16.7606 4.31402 18.1729 5.59227 19.0464 7.22389C19.92 8.85551 20.2009 10.7395 19.8411 12.555C19.4814 14.3705 18.5033 16.005 17.0735 17.1802C15.6438 18.3554 13.8508 18.9985 12 19Z" fill="currentColor"/>
<path d="M8 4C8 6.20914 6.20914 8 4 8C1.79086 8 0 6.20914 0 4C0 1.79086 1.79086 0 4 0C6.20914 0 8 1.79086 8 4Z" fill="#2D74FF"/>
</svg>
