<svg width="22" height="22" viewBox="0 0 22 22" fill="none" xmlns="http://www.w3.org/2000/svg">
<path fill-rule="evenodd" clip-rule="evenodd" d="M7 0C3.13403 0 0 3.13403 0 7V15C0 18.866 3.13403 22 7 22H15C18.866 22 22 18.866 22 15V7C22 3.13403 18.866 0 15 0H7ZM15.2251 7.22498C15.5249 6.92505 15.9751 6.92505 16.2749 7.22498C16.575 7.52502 16.575 7.97498 16.2749 8.27502L10.125 14.425C10.0432 14.5067 9.96143 14.5662 9.86768 14.6034C9.78931 14.6345 9.70239 14.65 9.6001 14.65C9.375 14.65 9.2251 14.575 9.07495 14.425L6.2251 11.575C5.92505 11.275 5.92505 10.825 6.2251 10.525C6.5249 10.225 6.9751 10.225 7.2749 10.525L9.6001 12.85L15.2251 7.22498Z" fill="currentColor"/>
</svg>
