<svg width="14" height="14" viewBox="0 0 14 14" fill="none" xmlns="http://www.w3.org/2000/svg">
<path d="M6.99372 13.2444C10.5533 13.2444 13.4914 10.3064 13.4914 6.75307C13.4914 3.19978 10.547 0.261719 6.98744 0.261719C3.43415 0.261719 0.502373 3.19978 0.502373 6.75307C0.502373 10.3064 3.44043 13.2444 6.99372 13.2444ZM6.99372 11.9512C4.11217 11.9512 1.80818 9.63463 1.80818 6.75307C1.80818 3.87151 4.11217 1.56124 6.98744 1.56124C9.869 1.56124 12.1855 3.87151 12.1918 6.75307C12.1981 9.63463 9.87528 11.9512 6.99372 11.9512ZM4.67718 7.34947H6.39732V9.07589C6.39732 9.42118 6.64216 9.66601 6.98117 9.66601C7.33273 9.66601 7.58385 9.42118 7.58385 9.07589V7.34947H9.31027C9.65555 7.34947 9.90667 7.10463 9.90667 6.75935C9.90667 6.41406 9.66183 6.16295 9.31027 6.16295H7.58385V4.43652C7.58385 4.08496 7.33273 3.84012 6.98117 3.84012C6.64216 3.84012 6.39732 4.08496 6.39732 4.43652V6.16295H4.67718C4.31934 6.16295 4.0745 6.41406 4.0745 6.75935C4.0745 7.10463 4.32561 7.34947 4.67718 7.34947Z" fill="currentColor"/>
</svg>
