<svg width="23" height="18" viewBox="0 0 23 18" fill="none" xmlns="http://www.w3.org/2000/svg">
<path d="M16.678 17H21.678V15C21.6779 14.3765 21.4836 13.7686 21.1221 13.2606C20.7606 12.7527 20.2498 12.37 19.6607 12.1658C19.0717 11.9615 18.4336 11.9459 17.8352 12.121C17.2369 12.2962 16.7079 12.6534 16.322 13.143M16.678 17H6.67798M16.678 17V15C16.678 14.344 16.552 13.717 16.322 13.143M16.322 13.143C15.9506 12.215 15.3097 11.4195 14.482 10.8591C13.6542 10.2988 12.6776 9.9993 11.678 9.9993C10.6784 9.9993 9.70174 10.2988 8.87398 10.8591C8.04622 11.4195 7.40533 12.215 7.03398 13.143M6.67798 17H1.67798V15C1.67802 14.3765 1.87231 13.7686 2.23384 13.2606C2.59537 12.7527 3.10616 12.37 3.69523 12.1658C4.28429 11.9615 4.92236 11.9459 5.52072 12.121C6.11908 12.2962 6.64801 12.6534 7.03398 13.143M6.67798 17V15C6.67798 14.344 6.80398 13.717 7.03398 13.143M14.678 4C14.678 4.79565 14.3619 5.55871 13.7993 6.12132C13.2367 6.68393 12.4736 7 11.678 7C10.8823 7 10.1193 6.68393 9.55666 6.12132C8.99405 5.55871 8.67798 4.79565 8.67798 4C8.67798 3.20435 8.99405 2.44129 9.55666 1.87868C10.1193 1.31607 10.8823 1 11.678 1C12.4736 1 13.2367 1.31607 13.7993 1.87868C14.3619 2.44129 14.678 3.20435 14.678 4ZM20.678 7C20.678 7.53043 20.4673 8.03914 20.0922 8.41421C19.7171 8.78929 19.2084 9 18.678 9C18.1475 9 17.6388 8.78929 17.2638 8.41421C16.8887 8.03914 16.678 7.53043 16.678 7C16.678 6.46957 16.8887 5.96086 17.2638 5.58579C17.6388 5.21071 18.1475 5 18.678 5C19.2084 5 19.7171 5.21071 20.0922 5.58579C20.4673 5.96086 20.678 6.46957 20.678 7ZM6.67798 7C6.67798 7.53043 6.46726 8.03914 6.09219 8.41421C5.71712 8.78929 5.20841 9 4.67798 9C4.14755 9 3.63884 8.78929 3.26376 8.41421C2.88869 8.03914 2.67798 7.53043 2.67798 7C2.67798 6.46957 2.88869 5.96086 3.26376 5.58579C3.63884 5.21071 4.14755 5 4.67798 5C5.20841 5 5.71712 5.21071 6.09219 5.58579C6.46726 5.96086 6.67798 6.46957 6.67798 7Z" stroke="currentColor" stroke-width="2" stroke-linecap="round" stroke-linejoin="round"/>
</svg>
