<svg width="12" height="10" viewBox="0 0 12 10" fill="none" xmlns="http://www.w3.org/2000/svg">
<path d="M1.24168 5.59167L5.40834 9.75834C5.48759 9.83421 5.58105 9.89368 5.68334 9.93334C5.88623 10.0167 6.11379 10.0167 6.31667 9.93334C6.41897 9.89368 6.51242 9.83421 6.59167 9.75834L10.7583 5.59167C10.836 5.51397 10.8977 5.42173 10.9397 5.32021C10.9818 5.21869 11.0034 5.10989 11.0034 5C11.0034 4.77809 10.9153 4.56526 10.7583 4.40834C10.6014 4.25142 10.3886 4.16326 10.1667 4.16326C9.94476 4.16326 9.73193 4.25142 9.57501 4.40834L6.83334 7.15834L6.83334 0.833339C6.83334 0.612325 6.74554 0.400363 6.58926 0.244083C6.43298 0.0878026 6.22102 5.90162e-06 6.00001 5.92094e-06C5.77899 5.94026e-06 5.56703 0.0878027 5.41075 0.244083C5.25447 0.400363 5.16667 0.612326 5.16667 0.833339L5.16667 7.15834L2.42501 4.40834C2.34754 4.33023 2.25537 4.26824 2.15382 4.22593C2.05227 4.18362 1.94335 4.16184 1.83334 4.16184C1.72333 4.16184 1.61441 4.18362 1.51286 4.22593C1.41131 4.26824 1.31914 4.33023 1.24168 4.40834C1.16357 4.48581 1.10157 4.57798 1.05926 4.67953C1.01696 4.78107 0.995176 4.89 0.995176 5.00001C0.995176 5.11002 1.01696 5.21894 1.05926 5.32049C1.10157 5.42204 1.16357 5.5142 1.24168 5.59167Z" fill="currentColor"/>
</svg>
