<svg width="17" height="17" viewBox="0 0 17 17" fill="none" xmlns="http://www.w3.org/2000/svg">
<path d="M12.3752 7.62523L12.3753 7.62528L12.3813 7.61903C12.6454 7.34556 12.7916 6.97928 12.7883 6.5991C12.785 6.21891 12.6325 5.85524 12.3637 5.58639C12.0948 5.31755 11.7311 5.16506 11.3509 5.16175C10.9708 5.15845 10.6045 5.3046 10.331 5.56873L10.331 5.56868L10.3248 5.57482L7.55002 8.34962L6.67523 7.47482L6.67528 7.47477L6.66903 7.46873C6.39556 7.2046 6.02928 7.05845 5.6491 7.06175C5.26891 7.06506 4.90524 7.21755 4.63639 7.48639C4.36755 7.75524 4.21506 8.11891 4.21175 8.4991C4.20845 8.87929 4.3546 9.24556 4.61873 9.51903L4.61868 9.51908L4.62482 9.52523L6.52482 11.4252L6.52487 11.4253C6.79679 11.6971 7.16554 11.8498 7.55002 11.8498C7.93451 11.8498 8.30326 11.6971 8.57517 11.4253L8.57523 11.4252L12.3752 7.62523ZM13.5205 13.5205C12.189 14.852 10.3831 15.6 8.50002 15.6C6.61699 15.6 4.81107 14.852 3.47957 13.5205C2.14806 12.189 1.40002 10.3831 1.40002 8.50002C1.40002 6.61699 2.14806 4.81107 3.47957 3.47957C4.81107 2.14806 6.61699 1.40002 8.50002 1.40002C10.3831 1.40002 12.189 2.14806 13.5205 3.47957C14.852 4.81107 15.6 6.61699 15.6 8.50002C15.6 10.3831 14.852 12.189 13.5205 13.5205Z" fill="currentColor" stroke="currentColor"/>
</svg>
