<svg width="25" height="24" viewBox="0 0 25 24" fill="none" xmlns="http://www.w3.org/2000/svg">
<path d="M13.3118 2.75149C13.0867 2.52652 12.7816 2.40015 12.4634 2.40015C12.1452 2.40015 11.84 2.52652 11.615 2.75149L3.21497 11.1515C2.99638 11.3778 2.87542 11.6809 2.87816 11.9956C2.88089 12.3102 3.00709 12.6112 3.22958 12.8337C3.45207 13.0562 3.75305 13.1824 4.06769 13.1851C4.38232 13.1878 4.68544 13.0669 4.91177 12.8483L5.26337 12.4967V20.3999C5.26337 20.7181 5.3898 21.0234 5.61484 21.2484C5.83988 21.4735 6.14511 21.5999 6.46337 21.5999H8.86337C9.18163 21.5999 9.48685 21.4735 9.71189 21.2484C9.93694 21.0234 10.0634 20.7181 10.0634 20.3999V17.9999C10.0634 17.6816 10.1898 17.3764 10.4148 17.1514C10.6399 16.9263 10.9451 16.7999 11.2634 16.7999H13.6634C13.9816 16.7999 14.2869 16.9263 14.5119 17.1514C14.7369 17.3764 14.8634 17.6816 14.8634 17.9999V20.3999C14.8634 20.7181 14.9898 21.0234 15.2148 21.2484C15.4399 21.4735 15.7451 21.5999 16.0634 21.5999H18.4634C18.7816 21.5999 19.0869 21.4735 19.3119 21.2484C19.5369 21.0234 19.6634 20.7181 19.6634 20.3999V12.4967L20.015 12.8483C20.2413 13.0669 20.5444 13.1878 20.859 13.1851C21.1737 13.1824 21.4747 13.0562 21.6971 12.8337C21.9196 12.6112 22.0458 12.3102 22.0486 11.9956C22.0513 11.6809 21.9304 11.3778 21.7118 11.1515L13.3118 2.75149V2.75149Z" fill="currentColor"/>
</svg>
