<svg width="17" height="21" viewBox="0 0 17 21" fill="none" xmlns="http://www.w3.org/2000/svg">
<path d="M15 12.18V9C14.9986 7.58312 14.4958 6.21247 13.5806 5.13077C12.6655 4.04908 11.3971 3.32615 10 3.09V2C10 1.73478 9.89464 1.48043 9.70711 1.29289C9.51957 1.10536 9.26522 1 9 1C8.73478 1 8.48043 1.10536 8.29289 1.29289C8.10536 1.48043 8 1.73478 8 2V3.09C6.60294 3.32615 5.33452 4.04908 4.41939 5.13077C3.50425 6.21247 3.00144 7.58312 3 9V12.18C2.41645 12.3863 1.911 12.7681 1.55294 13.2729C1.19488 13.7778 1.00174 14.3811 1 15V17C1 17.2652 1.10536 17.5196 1.29289 17.7071C1.48043 17.8946 1.73478 18 2 18H5.14C5.37028 18.8474 5.873 19.5954 6.5706 20.1287C7.26819 20.6621 8.1219 20.951 9 20.951C9.8781 20.951 10.7318 20.6621 11.4294 20.1287C12.127 19.5954 12.6297 18.8474 12.86 18H16C16.2652 18 16.5196 17.8946 16.7071 17.7071C16.8946 17.5196 17 17.2652 17 17V15C16.9983 14.3811 16.8051 13.7778 16.4471 13.2729C16.089 12.7681 15.5835 12.3863 15 12.18ZM5 9C5 7.93913 5.42143 6.92172 6.17157 6.17157C6.92172 5.42143 7.93913 5 9 5C10.0609 5 11.0783 5.42143 11.8284 6.17157C12.5786 6.92172 13 7.93913 13 9V12H5V9ZM9 19C8.65097 18.9979 8.30857 18.9045 8.00683 18.7291C7.70509 18.5536 7.45451 18.3023 7.28 18H10.72C10.5455 18.3023 10.2949 18.5536 9.99317 18.7291C9.69143 18.9045 9.34903 18.9979 9 19ZM15 16H3V15C3 14.7348 3.10536 14.4804 3.29289 14.2929C3.48043 14.1054 3.73478 14 4 14H14C14.2652 14 14.5196 14.1054 14.7071 14.2929C14.8946 14.4804 15 14.7348 15 15V16Z" fill="currentColor"/>
<path d="M8 4C8 6.20914 6.20914 8 4 8C1.79086 8 0 6.20914 0 4C0 1.79086 1.79086 0 4 0C6.20914 0 8 1.79086 8 4Z" fill="#2D74FF"/>
</svg>
