<svg width="17" height="20" viewBox="0 0 17 20" fill="none" xmlns="http://www.w3.org/2000/svg">
<path d="M5.28534 12L11.2853 6M5.78534 6.5H5.79534M10.7853 11.5H10.7953M15.2853 19V3C15.2853 2.46957 15.0746 1.96086 14.6996 1.58579C14.3245 1.21071 13.8158 1 13.2853 1H3.28534C2.75491 1 2.2462 1.21071 1.87113 1.58579C1.49605 1.96086 1.28534 2.46957 1.28534 3V19L4.78534 17L8.28534 19L11.7853 17L15.2853 19ZM6.28534 6.5C6.28534 6.63261 6.23266 6.75979 6.13889 6.85355C6.04512 6.94732 5.91795 7 5.78534 7C5.65273 7 5.52555 6.94732 5.43179 6.85355C5.33802 6.75979 5.28534 6.63261 5.28534 6.5C5.28534 6.36739 5.33802 6.24021 5.43179 6.14645C5.52555 6.05268 5.65273 6 5.78534 6C5.91795 6 6.04512 6.05268 6.13889 6.14645C6.23266 6.24021 6.28534 6.36739 6.28534 6.5ZM11.2853 11.5C11.2853 11.6326 11.2327 11.7598 11.1389 11.8536C11.0451 11.9473 10.9179 12 10.7853 12C10.6527 12 10.5256 11.9473 10.4318 11.8536C10.338 11.7598 10.2853 11.6326 10.2853 11.5C10.2853 11.3674 10.338 11.2402 10.4318 11.1464C10.5256 11.0527 10.6527 11 10.7853 11C10.9179 11 11.0451 11.0527 11.1389 11.1464C11.2327 11.2402 11.2853 11.3674 11.2853 11.5Z" stroke="currentColor" stroke-width="2" stroke-linecap="round" stroke-linejoin="round"/>
</svg>
