<svg width="21" height="20" viewBox="0 0 21 20" fill="none" xmlns="http://www.w3.org/2000/svg">
<path d="M4.01367 15.804C6.11209 14.6179 8.48225 13.9963 10.8927 14C13.3927 14 15.7397 14.655 17.7717 15.804M13.8927 8C13.8927 8.79565 13.5766 9.55871 13.014 10.1213C12.4514 10.6839 11.6883 11 10.8927 11C10.097 11 9.33396 10.6839 8.77135 10.1213C8.20874 9.55871 7.89267 8.79565 7.89267 8C7.89267 7.20435 8.20874 6.44129 8.77135 5.87868C9.33396 5.31607 10.097 5 10.8927 5C11.6883 5 12.4514 5.31607 13.014 5.87868C13.5766 6.44129 13.8927 7.20435 13.8927 8ZM19.8927 10C19.8927 11.1819 19.6599 12.3522 19.2076 13.4442C18.7553 14.5361 18.0924 15.5282 17.2566 16.364C16.4209 17.1997 15.4288 17.8626 14.3368 18.3149C13.2449 18.7672 12.0746 19 10.8927 19C9.71077 19 8.54045 18.7672 7.44852 18.3149C6.35659 17.8626 5.36444 17.1997 4.52871 16.364C3.69298 15.5282 3.03005 14.5361 2.57775 13.4442C2.12546 12.3522 1.89267 11.1819 1.89267 10C1.89267 7.61305 2.84088 5.32387 4.52871 3.63604C6.21654 1.94821 8.50572 1 10.8927 1C13.2796 1 15.5688 1.94821 17.2566 3.63604C18.9445 5.32387 19.8927 7.61305 19.8927 10Z" stroke="currentColor" stroke-width="2" stroke-linecap="round" stroke-linejoin="round"/>
</svg>
