<svg width="14" height="14" viewBox="0 0 14 14" fill="currentColor" xmlns="http://www.w3.org/2000/svg">
<path d="M7.41741 0.827543L7.41746 0.827703L8.42497 4.06411L8.42511 4.06454C8.51687 4.3584 8.69644 4.61826 8.94212 4.80457C9.18815 4.99114 9.48718 5.0936 9.7965 5.09384H9.79689H13.0567C13.2579 5.09384 13.4118 5.21954 13.4747 5.42185C13.538 5.62557 13.4855 5.84003 13.308 5.97506C13.3079 5.97511 13.3079 5.97516 13.3078 5.97521L10.672 7.97435C10.4258 8.16082 10.2459 8.42112 10.1541 8.71549C10.0624 9.00971 10.0622 9.32609 10.1537 9.6204L10.1537 9.62066L11.1612 12.8571L11.1613 12.8574C11.2349 13.093 11.1459 13.2946 10.9946 13.4093C10.8466 13.5216 10.6613 13.5384 10.4907 13.4092C10.4907 13.4092 10.4907 13.4092 10.4907 13.4091L7.85428 11.4095L7.85417 11.4095C7.60788 11.2228 7.30853 11.1204 6.99894 11.1204C6.68934 11.1204 6.38999 11.2228 6.14371 11.4095L6.1436 11.4095L3.50713 13.4092L3.50697 13.4093C3.33706 13.5383 3.15245 13.5216 3.00462 13.4094C2.85342 13.2947 2.76426 13.0928 2.83762 12.8569L3.84508 9.62066L3.84516 9.6204C3.9366 9.32609 3.93644 9.00971 3.84469 8.71549C3.7529 8.42112 3.57301 8.16082 3.32683 7.97435L0.691972 5.97619C0.691914 5.97615 0.691857 5.9761 0.691799 5.97606C0.51446 5.84116 0.461943 5.62683 0.525384 5.42297C0.588436 5.22036 0.742518 5.09482 0.943071 5.09482H4.20179C4.20184 5.09482 4.20189 5.09482 4.20193 5.09482C4.51146 5.09488 4.81077 4.99257 5.05706 4.80599C5.30303 4.61966 5.48281 4.35962 5.57466 4.06552L5.57479 4.06509L6.5823 0.828686L6.59329 0.793375C6.74817 0.390297 7.28553 0.403405 7.41741 0.827543Z" />
</svg>
